<svg id="visual" viewBox="0 0 900 600" width="900" height="600" xmlns="http://www.w3.org/2000/svg" xmlns:xlink="http://www.w3.org/1999/xlink" version="1.1"><path d="M0 199L13.7 191C27.3 183 54.7 167 82 171C109.3 175 136.7 199 163.8 206C191 213 218 203 245.2 212C272.3 221 299.7 249 327 246C354.3 243 381.7 209 409 197C436.3 185 463.7 195 491 203C518.3 211 545.7 217 573 198C600.3 179 627.7 135 654.8 115C682 95 709 99 736.2 101C763.3 103 790.7 103 818 105C845.3 107 872.7 111 886.3 113L900 115L900 0L886.3 0C872.7 0 845.3 0 818 0C790.7 0 763.3 0 736.2 0C709 0 682 0 654.8 0C627.7 0 600.3 0 573 0C545.7 0 518.3 0 491 0C463.7 0 436.3 0 409 0C381.7 0 354.3 0 327 0C299.7 0 272.3 0 245.2 0C218 0 191 0 163.8 0C136.7 0 109.3 0 82 0C54.7 0 27.3 0 13.7 0L0 0Z" fill="#da6a94"></path><path d="M0 271L13.7 257C27.3 243 54.7 215 82 219C109.3 223 136.7 259 163.8 268C191 277 218 259 245.2 270C272.3 281 299.7 321 327 327C354.3 333 381.7 305 409 289C436.3 273 463.7 269 491 276C518.3 283 545.7 301 573 285C600.3 269 627.7 219 654.8 196C682 173 709 177 736.2 175C763.3 173 790.7 165 818 166C845.3 167 872.7 177 886.3 182L900 187L900 113L886.3 111C872.7 109 845.3 105 818 103C790.7 101 763.3 101 736.2 99C709 97 682 93 654.8 113C627.7 133 600.3 177 573 196C545.7 215 518.3 209 491 201C463.7 193 436.3 183 409 195C381.7 207 354.3 241 327 244C299.7 247 272.3 219 245.2 210C218 201 191 211 163.8 204C136.7 197 109.3 173 82 169C54.7 165 27.3 181 13.7 189L0 197Z" fill="#d14b7e"></path><path d="M0 361L13.7 353C27.3 345 54.7 329 82 337C109.3 345 136.7 377 163.8 390C191 403 218 397 245.2 398C272.3 399 299.7 407 327 402C354.3 397 381.7 379 409 375C436.3 371 463.7 381 491 385C518.3 389 545.7 387 573 368C600.3 349 627.7 313 654.8 297C682 281 709 285 736.2 294C763.3 303 790.7 317 818 314C845.3 311 872.7 291 886.3 281L900 271L900 185L886.3 180C872.7 175 845.3 165 818 164C790.7 163 763.3 171 736.2 173C709 175 682 171 654.8 194C627.7 217 600.3 267 573 283C545.7 299 518.3 281 491 274C463.7 267 436.3 271 409 287C381.7 303 354.3 331 327 325C299.7 319 272.3 279 245.2 268C218 257 191 275 163.8 266C136.7 257 109.3 221 82 217C54.7 213 27.3 241 13.7 255L0 269Z" fill="#c62368"></path><path d="M0 523L13.7 524C27.3 525 54.7 527 82 528C109.3 529 136.7 529 163.8 531C191 533 218 537 245.2 535C272.3 533 299.7 525 327 523C354.3 521 381.7 525 409 532C436.3 539 463.7 549 491 546C518.3 543 545.7 527 573 519C600.3 511 627.7 511 654.8 510C682 509 709 507 736.2 515C763.3 523 790.7 541 818 545C845.3 549 872.7 539 886.3 534L900 529L900 269L886.3 279C872.7 289 845.3 309 818 312C790.7 315 763.3 301 736.2 292C709 283 682 279 654.8 295C627.7 311 600.3 347 573 366C545.7 385 518.3 387 491 383C463.7 379 436.3 369 409 373C381.7 377 354.3 395 327 400C299.7 405 272.3 397 245.2 396C218 395 191 401 163.8 388C136.7 375 109.3 343 82 335C54.7 327 27.3 343 13.7 351L0 359Z" fill="#ab1f5a"></path><path d="M0 601L13.7 601C27.3 601 54.7 601 82 601C109.3 601 136.7 601 163.8 601C191 601 218 601 245.2 601C272.3 601 299.7 601 327 601C354.3 601 381.7 601 409 601C436.3 601 463.7 601 491 601C518.3 601 545.7 601 573 601C600.3 601 627.7 601 654.8 601C682 601 709 601 736.2 601C763.3 601 790.7 601 818 601C845.3 601 872.7 601 886.3 601L900 601L900 527L886.3 532C872.7 537 845.3 547 818 543C790.7 539 763.3 521 736.2 513C709 505 682 507 654.8 508C627.7 509 600.3 509 573 517C545.7 525 518.3 541 491 544C463.7 547 436.3 537 409 530C381.7 523 354.3 519 327 521C299.7 523 272.3 531 245.2 533C218 535 191 531 163.8 529C136.7 527 109.3 527 82 526C54.7 525 27.3 523 13.7 522L0 521Z" fill="#911b4d"></path></svg>